<svg width="144" height="102" viewBox="0 0 144 102" fill="none" xmlns="http://www.w3.org/2000/svg">
<g clip-path="url(#clip0_6_6)">
<path d="M0 101.266V73.1539L20.286 60.0122L20.3411 79.3034C20.3411 79.3034 20.3281 74.7324 14.0018 74.7324C7.67544 74.7324 7.66238 79.3034 7.66238 79.3034V88.7062L14.7227 84.1352V90.2846H7.66238V99.6874C7.66238 99.6874 9.25636 96.6888 13.5988 95.1164C17.9413 93.5439 20.286 92.8308 20.286 92.8308V101.266H0Z" fill="#D0EE11"/>
<path d="M114.288 100.92V60.0528H122.469V80.9323H122.881L131.945 67.3665L143.988 60.0122C143.988 60.0122 140.836 71.6203 138.752 74.2967C136.667 76.9731 131.297 82.3085 131.297 82.3085C131.297 82.3085 136.718 85.9098 138.752 89.544C140.786 93.1783 144 100.92 144 100.92H131.945L125.176 88.3377L122.469 92.2698V100.92H114.288Z" fill="white"/>
<path d="M112.003 84.1434C112.003 87.8791 111.357 91.0304 110.065 93.5973C108.773 96.1533 107.029 98.0921 104.834 99.4138C102.638 100.725 100.19 101.38 97.4897 101.38C94.7697 101.38 92.312 100.719 90.1166 99.3975C87.9309 98.0648 86.192 96.1205 84.9 93.5645C83.6177 90.9976 82.9766 87.8572 82.9766 84.1434C82.9766 80.4077 83.6177 77.2618 84.9 74.7058C86.192 72.1389 87.9309 70.2 90.1166 68.8893C92.312 67.5676 94.7697 66.9067 97.4897 66.9067C100.19 66.9067 102.638 67.5676 104.834 68.8893C107.029 70.2 108.773 72.1389 110.065 74.7058C111.357 77.2618 112.003 80.4077 112.003 84.1434ZM103.668 84.1434C103.668 82.1335 103.43 80.4404 102.954 79.0641C102.488 77.6769 101.793 76.6283 100.87 75.9183C99.9571 75.1974 98.8302 74.8369 97.4897 74.8369C96.1491 74.8369 95.0174 75.1974 94.0945 75.9183C93.1814 76.6283 92.4868 77.6769 92.0108 79.0641C91.5445 80.4404 91.3114 82.1335 91.3114 84.1434C91.3114 86.1532 91.5445 87.8518 92.0108 89.239C92.4868 90.6153 93.1814 91.6639 94.0945 92.3848C95.0174 93.0948 96.1491 93.4498 97.4897 93.4498C98.8302 93.4498 99.9571 93.0948 100.87 92.3848C101.793 91.6639 102.488 90.6153 102.954 89.239C103.43 87.8518 103.668 86.1532 103.668 84.1434Z" fill="white"/>
<path d="M80.6911 84.1434C80.6911 87.8791 80.04 91.0304 78.7378 93.5973C77.4357 96.1533 75.6782 98.0921 73.4655 99.4138C71.2528 100.725 68.7856 101.38 66.0638 101.38C63.3224 101.38 60.8453 100.719 58.6326 99.3975C56.4297 98.0648 54.6772 96.1205 53.375 93.5645C52.0826 90.9976 51.4364 87.8572 51.4364 84.1434C51.4364 80.4077 52.0826 77.2618 53.375 74.7058C54.6772 72.1389 56.4297 70.2 58.6326 68.8893C60.8453 67.5676 63.3224 66.9067 66.0638 66.9067C68.7856 66.9067 71.2528 67.5676 73.4655 68.8893C75.6782 70.2 77.4357 72.1389 78.7378 74.7058C80.04 77.2618 80.6911 80.4077 80.6911 84.1434ZM72.2907 84.1434C72.2907 82.1335 72.0508 80.4404 71.571 79.0641C71.1011 77.6769 70.401 76.6283 69.4709 75.9183C68.5506 75.1974 67.4149 74.8369 66.0638 74.8369C64.7126 74.8369 63.572 75.1974 62.6419 75.9183C61.7216 76.6283 61.0215 77.6769 60.5418 79.0641C60.0718 80.4404 59.8369 82.1335 59.8369 84.1434C59.8369 86.1532 60.0718 87.8518 60.5418 89.239C61.0215 90.6153 61.7216 91.6639 62.6419 92.3848C63.572 93.0948 64.7126 93.4498 66.0638 93.4498C67.4149 93.4498 68.5506 93.0948 69.4709 92.3848C70.401 91.6639 71.1011 90.6153 71.571 89.239C72.0508 87.8518 72.2907 86.1532 72.2907 84.1434Z" fill="white"/>
<path d="M25.153 100.973V60.0122C25.153 60.0122 33.0258 65.413 38.5355 67.0218C40.605 67.7057 42.7392 67.927 43.9295 68.4509C45.493 69.139 46.6705 70.1111 47.462 71.3672C48.2633 72.6233 48.664 74.1033 48.664 75.8072C48.664 77.0414 48.4197 78.1665 47.9311 79.1823C47.4523 80.1981 46.778 81.05 45.9083 81.7381C45.0386 82.4153 44.0224 82.885 42.8595 83.1471V83.4748C44.1494 83.5294 45.322 83.8953 46.3774 84.5725C47.4327 85.2388 48.2731 86.1617 48.8985 87.3414C49.5239 88.5101 49.8366 89.8863 49.8366 91.4701C49.8366 93.3051 49.4066 94.938 48.5467 96.3688C47.6966 97.7997 46.4848 98.9247 44.9116 99.7439C43.3383 100.563 41.4621 100.973 39.283 100.973H25.153ZM33.3027 93.6983H37.1137C38.4817 93.6983 39.5078 93.4143 40.1918 92.8463C40.8758 92.2674 41.2178 91.4155 41.2178 90.2905C41.2178 89.504 41.0566 88.8378 40.7341 88.2916C40.4117 87.7455 39.9524 87.3305 39.3563 87.0465C38.77 86.7625 38.0615 86.6205 37.2309 86.6205H33.3027V93.6983ZM33.3027 80.9845H36.6446C37.358 80.9845 37.9883 80.8589 38.5355 80.6077C39.0827 80.3564 39.5078 79.996 39.8107 79.5263C40.1234 79.0457 40.2797 78.4614 40.2797 77.7733C40.2797 76.7356 39.9475 75.9437 39.283 75.3976C38.6185 74.8406 37.7782 74.562 36.7619 74.562H33.3027V80.9845Z" fill="white"/>
<path d="M43.6452 18.9248V59.4075H72.862H102.079V18.9248L72.862 0L43.6452 18.9248ZM63.7565 21.1979C72.8433 21.1979 72.862 27.7804 72.862 27.7804C72.862 27.7804 72.8808 21.1979 81.9675 21.1979C91.0543 21.1979 91.0731 27.7804 91.0731 27.7804V41.3209L80.932 34.7384V43.594H91.0731V57.1345C91.0731 57.1345 88.7836 52.8163 82.5463 50.5519C76.309 48.2875 72.862 47.2607 72.862 47.2607C72.862 47.2607 69.4151 48.2875 63.1778 50.5519C56.9405 52.8163 54.651 57.1345 54.651 57.1345V43.594H64.7921V34.7384L54.651 41.3209V27.7804C54.651 27.7804 54.6698 21.1979 63.7565 21.1979Z" fill="#E4FF34"/>
</g>
<defs>
<clipPath id="clip0_6_6">
<rect width="144" height="102" fill="white"/>
</clipPath>
</defs>
</svg>
