<svg width="196" height="57" viewBox="0 0 196 57" fill="none" xmlns="http://www.w3.org/2000/svg">
<path d="M0 56.1354V17.8825L27.604 1.14441e-05L27.679 26.2503C27.679 26.2503 27.6612 20.0303 19.0527 20.0303C10.4443 20.0303 10.4265 26.2503 10.4265 26.2503V39.045L20.0338 32.825V41.1929H10.4265V53.9876C10.4265 53.9876 12.5955 49.9073 18.5045 47.7676C24.4135 45.6279 27.604 44.6576 27.604 44.6576V56.1354H0Z" fill="#D0EE11"/>
<path d="M155.516 55.6655V0.055299H166.648V28.4668H167.209L179.542 10.0073L195.93 0C195.93 0 191.642 15.7956 188.805 19.4375C185.968 23.0793 178.661 30.3395 178.661 30.3395C178.661 30.3395 186.037 35.2399 188.805 40.1851C191.573 45.1303 195.946 55.6655 195.946 55.6655H179.542L170.332 38.5437L166.648 43.8942V55.6655H155.516Z" fill="white"/>
<path d="M152.406 32.8364C152.406 37.9197 151.527 42.2078 149.769 45.7007C148.011 49.1788 145.639 51.817 142.651 53.6155C139.664 55.3991 136.333 56.2909 132.658 56.2909C128.957 56.2909 125.613 55.3917 122.625 53.5932C119.651 51.7799 117.285 49.1342 115.527 45.6561C113.782 42.1632 112.91 37.89 112.91 32.8364C112.91 27.7531 113.782 23.4724 115.527 19.9943C117.285 16.5014 119.651 13.8632 122.625 12.0795C125.613 10.2811 128.957 9.38183 132.658 9.38183C136.333 9.38183 139.664 10.2811 142.651 12.0795C145.639 13.8632 148.011 16.5014 149.769 19.9943C151.527 23.4724 152.406 27.7531 152.406 32.8364ZM141.065 32.8364C141.065 30.1015 140.741 27.7977 140.093 25.9249C139.459 24.0372 138.514 22.6103 137.258 21.6442C136.015 20.6632 134.482 20.1727 132.658 20.1727C130.834 20.1727 129.294 20.6632 128.038 21.6442C126.796 22.6103 125.85 24.0372 125.203 25.9249C124.568 27.7977 124.251 30.1015 124.251 32.8364C124.251 35.5713 124.568 37.8825 125.203 39.7702C125.85 41.643 126.796 43.0699 128.038 44.0509C129.294 45.017 130.834 45.5001 132.658 45.5001C134.482 45.5001 136.015 45.017 137.258 44.0509C138.514 43.0699 139.459 41.643 140.093 39.7702C140.741 37.8825 141.065 35.5713 141.065 32.8364Z" fill="white"/>
<path d="M109.8 32.8364C109.8 37.9197 108.914 42.2078 107.142 45.7007C105.37 49.1788 102.978 51.817 99.9674 53.6155C96.9565 55.3991 93.5992 56.2909 89.8955 56.2909C86.1652 56.2909 82.7946 55.3917 79.7837 53.5932C76.7861 51.7799 74.4014 49.1342 72.6295 45.6561C70.8709 42.1632 69.9916 37.89 69.9916 32.8364C69.9916 27.7531 70.8709 23.4724 72.6295 19.9943C74.4014 16.5014 76.7861 13.8632 79.7837 12.0795C82.7946 10.2811 86.1652 9.38183 89.8955 9.38183C93.5992 9.38183 96.9565 10.2811 99.9674 12.0795C102.978 13.8632 105.37 16.5014 107.142 19.9943C108.914 23.4724 109.8 27.7531 109.8 32.8364ZM98.3687 32.8364C98.3687 30.1015 98.0423 27.7977 97.3895 25.9249C96.75 24.0372 95.7975 22.6103 94.5318 21.6442C93.2795 20.6632 91.7341 20.1727 89.8955 20.1727C88.057 20.1727 86.5049 20.6632 85.2393 21.6442C83.987 22.6103 83.0344 24.0372 82.3816 25.9249C81.7421 27.7977 81.4224 30.1015 81.4224 32.8364C81.4224 35.5713 81.7421 37.8825 82.3816 39.7702C83.0344 41.643 83.987 43.0699 85.2393 44.0509C86.5049 45.017 88.057 45.5001 89.8955 45.5001C91.7341 45.5001 93.2795 45.017 94.5318 44.0509C95.7975 43.0699 96.75 41.643 97.3895 39.7702C98.0423 37.8825 98.3687 35.5713 98.3687 32.8364Z" fill="white"/>
<path d="M34.2266 55.7365V1.14441e-05C34.2266 1.14441e-05 44.9394 7.34911 52.4367 9.5382C55.2528 10.4689 58.1569 10.77 59.7766 11.4829C61.9041 12.4192 63.5064 13.742 64.5834 15.4512C65.6738 17.1604 66.219 19.1743 66.219 21.4929C66.219 23.1724 65.8865 24.7032 65.2217 26.0855C64.5701 27.4677 63.6527 28.627 62.4692 29.5633C61.2858 30.4848 59.9029 31.1239 58.3206 31.4806V31.9265C60.0758 32.0008 61.6714 32.4987 63.1075 33.4202C64.5435 34.3268 65.6871 35.5827 66.5381 37.1879C67.3891 38.7782 67.8146 40.6509 67.8146 42.806C67.8146 45.3029 67.2295 47.5249 66.0594 49.4719C64.9026 51.4189 63.2537 52.9498 61.1129 54.0645C58.9721 55.1792 56.4191 55.7365 53.4539 55.7365H34.2266ZM45.3162 45.838H50.502C52.3636 45.838 53.7598 45.4515 54.6905 44.6787C55.6213 43.891 56.0867 42.7317 56.0867 41.2008C56.0867 40.1307 55.8673 39.2241 55.4285 38.4809C54.9897 37.7378 54.3648 37.173 53.5537 36.7866C52.7558 36.4002 51.7918 36.2069 50.6616 36.2069H45.3162V45.838ZM45.3162 28.5378H49.8638C50.8344 28.5378 51.6921 28.3669 52.4367 28.025C53.1813 27.6832 53.7598 27.1927 54.172 26.5536C54.5975 25.8997 54.8102 25.1045 54.8102 24.1682C54.8102 22.7562 54.3581 21.6787 53.4539 20.9355C52.5497 20.1775 51.4062 19.7985 50.0233 19.7985H45.3162V28.5378Z" fill="white"/>
</svg>
